<?xml version="1.0" encoding="UTF-8" standalone="no"?>
<!-- Generated by graphviz version 2.43.0 (0)
 -->

<!-- Title: Diagram Pages: 1 -->

<svg
   width="548pt"
   height="472pt"
   viewBox="0.00 0.00 547.50 471.77"
   version="1.1"
   id="svg846"
   sodipodi:docname="colored_filled_diagram.svg"
   inkscape:version="1.2.1 (9c6d41e410, 2022-07-14)"
   xmlns:inkscape="http://www.inkscape.org/namespaces/inkscape"
   xmlns:sodipodi="http://sodipodi.sourceforge.net/DTD/sodipodi-0.dtd"
   xmlns="http://www.w3.org/2000/svg"
   xmlns:svg="http://www.w3.org/2000/svg">
  <defs
     id="defs850" />
  <sodipodi:namedview
     id="namedview848"
     pagecolor="#ffffff"
     bordercolor="#000000"
     borderopacity="0.25"
     inkscape:showpageshadow="2"
     inkscape:pageopacity="0.0"
     inkscape:pagecheckerboard="0"
     inkscape:deskcolor="#d1d1d1"
     inkscape:document-units="pt"
     showgrid="false"
     inkscape:zoom="1.3172669"
     inkscape:cx="244.06594"
     inkscape:cy="314.28709"
     inkscape:window-width="2560"
     inkscape:window-height="1009"
     inkscape:window-x="-8"
     inkscape:window-y="-8"
     inkscape:window-maximized="1"
     inkscape:current-layer="svg846" />
  <polyline
     fill="none"
     stroke="#008000"
     points="389,-463.77 389,-457.77 "
     id="polyline788"
     transform="translate(-87.05332,611.17898)" />
  <polyline
     fill="none"
     stroke="#008000"
     points="395,-457.77 389,-457.77 "
     id="polyline790"
     transform="translate(-87.05332,611.17898)" />
  <g
     id="g1669"
     transform="translate(-88.207905,-8.5362487)">
    <polygon
       fill="#40ff40"
       stroke="#008000"
       points="389,-463.77 120,-463.77 120,-427.77 395,-427.77 395,-457.77 "
       id="polygon786"
       transform="matrix(0.34478338,0,0,3.2013963,79.673168,1631.7621)"
       style="stroke-width:0.951361;stroke-dasharray:none" />
    <text
       text-anchor="middle"
       x="167.60127"
       y="185.0433"
       font-family="Times, serif"
       font-size="14px"
       id="text792"><tspan
         sodipodi:role="line"
         id="tspan899"
         x="167.60127"
         y="185.0433">markdown file</tspan><tspan
         sodipodi:role="line"
         id="tspan901"
         x="167.60127"
         y="202.5433">containing</tspan><tspan
         sodipodi:role="line"
         x="167.60127"
         y="220.0433"
         id="tspan1586">fragments</tspan></text>
  </g>
  <g
     id="g897"
     transform="translate(2.8454163,-53.493825)"
     style="stroke-width:0.999513;stroke-dasharray:none">
    <circle
       fill="#ff8080"
       stroke="#ff0000"
       cx="260.93088"
       cy="247.83075"
       id="ellipse797"
       r="61.05843"
       style="stroke-width:0.999513;stroke-dasharray:none" />
    <text
       text-anchor="middle"
       x="261.5"
       y="239.58"
       font-family="Times, serif"
       font-size="14px"
       id="text799"
       style="stroke-width:0.999513;stroke-dasharray:none"><tspan
         sodipodi:role="line"
         id="tspan889"
         x="261.5"
         y="239.58">transformers</tspan><tspan
         sodipodi:role="line"
         id="tspan891"
         x="261.5"
         y="257.08002">using LLM models</tspan></text>
  </g>
  <path
     fill="none"
     stroke="#000000"
     d="m 265.48358,267.9798 c 0,9.13924 0,19.15077 0,29.85616"
     id="path804"
     style="stroke-width:1.40801" />
  <polygon
     fill="#000000"
     stroke="#000000"
     points="261,-417.43 254,-417.43 257.5,-427.43 "
     id="polygon806"
     transform="translate(7.9835828,685.1598)" />
  <polygon
     fill="#000000"
     stroke="#000000"
     points="261,-402.04 257.5,-392.04 254,-402.04 "
     id="polygon808"
     transform="translate(7.9835828,699.38688)" />
  <g
     id="g1644"
     style="stroke-width:0.999513;stroke-dasharray:none"
     transform="translate(-54.062909,-11.381665)">
    <path
       fill="#8080ff"
       stroke="#0000ff"
       d="m 391.76319,327.20458 c 0,-3.50308 -32.04831,-6.36389 -71.50676,-6.36389 -39.45845,0 -71.50676,2.86081 -71.50676,6.36389 0,0 0,57.33342 0,57.33342 0,3.50305 32.04831,6.36389 71.50676,6.36389 39.45845,0 71.50676,-2.86084 71.50676,-6.36389 0,0 0,-57.33342 0,-57.33342"
       id="path813"
       style="stroke-width:0.999513;stroke-dasharray:none" />
    <path
       fill="none"
       stroke="#0000ff"
       d="m 391.34595,327.39332 c 0,1.82105 -32.11636,3.30003 -71.6586,3.30003 -39.54224,0 -71.6586,-1.47898 -71.6586,-3.30003"
       id="path815"
       style="stroke-width:0.999513;stroke-dasharray:none" />
    <text
       text-anchor="middle"
       x="319.4028"
       y="342.49878"
       font-family="Times, serif"
       font-size="14px"
       id="text817"
       style="stroke-width:0.999513;stroke-dasharray:none"><tspan
         sodipodi:role="line"
         id="tspan1630"
         x="319.4028"
         y="342.49878">database</tspan><tspan
         sodipodi:role="line"
         id="tspan1632"
         x="319.4028"
         y="359.99878">with</tspan><tspan
         sodipodi:role="line"
         x="319.4028"
         y="377.49878"
         id="tspan1634">previous results</tspan></text>
  </g>
  <g
     id="edge2"
     class="edge"
     transform="rotate(56.702229,-87.499433,79.536588)">
    <title
       id="title820">B-&gt;C</title>
    <path
       fill="none"
       stroke="#000000"
       d="m 164.64,-89.34 c -11.09,16.91 -21.29,32.46 -29.26,44.61"
       id="path822" />
    <polygon
       fill="#000000"
       stroke="#000000"
       points="167.7,-87.62 161.85,-91.46 170.26,-97.9 "
       id="polygon824" />
    <polygon
       fill="#000000"
       stroke="#000000"
       points="132.3,-46.42 138.15,-42.58 129.74,-36.14 "
       id="polygon826" />
  </g>
  <g
     id="edge2-4"
     class="edge"
     transform="rotate(56.702229,15.129003,261.90494)">
    <title
       id="title820-3">B-&gt;C</title>
    <path
       fill="none"
       stroke="#000000"
       d="m 164.64,-89.34 c -11.09,16.91 -21.29,32.46 -29.26,44.61"
       id="path822-2" />
    <polygon
       fill="#000000"
       stroke="#000000"
       points="170.26,-97.9 167.7,-87.62 161.85,-91.46 "
       id="polygon824-0" />
    <polygon
       fill="#000000"
       stroke="#000000"
       points="129.74,-36.14 132.3,-46.42 138.15,-42.58 "
       id="polygon826-7" />
  </g>
  <g
     id="g1662"
     transform="translate(-101.8659,-23.901497)">
    <polygon
       fill="#ffff80"
       stroke="#ffff00"
       points="539.5,-36 255.5,-36 255.5,0 539.5,0 "
       id="polygon831"
       transform="matrix(0.47655053,0,0,2.4708991,382.5116,262.6293)"
       style="stroke-width:0.921099;stroke-dasharray:none" />
    <text
       text-anchor="middle"
       x="572.22498"
       y="195.1062"
       font-family="Times, serif"
       font-size="14px"
       id="text833"><tspan
         sodipodi:role="line"
         id="tspan1648"
         x="572.22498"
         y="195.1062">I/O:</tspan><tspan
         sodipodi:role="line"
         id="tspan1650"
         x="572.22498"
         y="212.6062">files,</tspan><tspan
         sodipodi:role="line"
         x="572.22498"
         y="230.1062"
         id="tspan1652">UI screenshots,</tspan><tspan
         sodipodi:role="line"
         x="572.22498"
         y="247.6062"
         id="tspan1654">selesium,...</tspan></text>
  </g>
</svg>
